<?xml version="1.0" encoding="utf-8"?>
<!-- Generator: Adobe Illustrator 23.0.5, SVG Export Plug-In . SVG Version: 6.00 Build 0)  -->
<svg version="1.1" id="Layer_1" xmlns="http://www.w3.org/2000/svg" xmlns:xlink="http://www.w3.org/1999/xlink" x="0px" y="0px"
	 viewBox="0 0 24 24" style="enable-background:new 0 0 24 24;" xml:space="preserve">
<style type="text/css">
	.st0{fill:#DDDDDD;}
</style>
<rect x="4.3" y="4.1" width="15.6" height="15.6"/>
<path class="st0" d="M19.7,0.5H4.3c-2.1,0-3.8,1.7-3.8,3.8v15.4c0,2.1,1.7,3.8,3.8,3.8h15.4c2.1,0,3.8-1.7,3.8-3.8V4.3
	C23.5,2.2,21.8,0.5,19.7,0.5z M17.6,16.9c0.3,0,0.5,0.2,0.5,0.5s-0.2,0.5-0.5,0.5h-3c-0.3,0-0.5-0.2-0.5-0.5s0.2-0.5,0.5-0.5h1V8.4
	l-3.2,5.4l0,0c0,0,0,0-0.1,0.1c0,0,0,0-0.1,0.1l0,0c0,0,0,0-0.1,0H12h-0.1h-0.1h-0.1c0,0,0,0-0.1,0l0,0c0,0-0.1,0-0.1-0.1
	c0,0,0,0-0.1-0.1l0,0l-3-5.4v8.5h1c0.3,0,0.5,0.2,0.5,0.5s-0.2,0.5-0.5,0.5h-3c-0.3,0-0.5-0.2-0.5-0.5s0.2-0.5,0.5-0.5h1V7.1h-1
	c-0.3,0-0.5-0.2-0.5-0.5s0.2-0.5,0.5-0.5h1.5c0.1,0,0.1,0,0.2,0l0,0c0.1,0,0.2,0.1,0.2,0.2l0,0l3.7,6.2l3.7-6.2l0,0
	c0.1-0.1,0.1-0.1,0.2-0.2l0,0c0.1,0,0.1,0,0.2,0h1.5c0.3,0,0.5,0.2,0.5,0.5s-0.2,0.5-0.5,0.5h-1v9.8C16.6,16.9,17.6,16.9,17.6,16.9z
	"/>
</svg>
